{
	"asset":{
		"generator":"Khronos glTF Blender I/O v3.5.30",
		"version":"2.0"
	},
	"scene":0,
	"scenes":[
		{
			"name":"Scene",
			"nodes":[
				5
			]
		}
	],
	"nodes":[
		{
			"mesh":0,
			"name":"merged_0"
		},
		{
			"mesh":1,
			"name":"merged_1"
		},
		{
			"mesh":2,
			"name":"merged_2"
		},
		{
			"mesh":3,
			"name":"merged_3"
		},
		{
			"children":[
				0,
				1,
				2,
				3
			],
			"name":"merged"
		},
		{
			"children":[
				4
			],
			"name":"DHIANSII_MEGA_float"
		}
	],
	"animations":[
		{
			"channels":[
				{
					"sampler":0,
					"target":{
						"node":5,
						"path":"rotation"
					}
				}
			],
			"name":"Spin",
			"samplers":[
				{
					"input":16,
					"interpolation":"LINEAR",
					"output":17
				}
			]
		}
	],
	"materials":[
		{
			"name":"Pii_DHIANSII_MEGA_body.003",
			"pbrMetallicRoughness":{
				"baseColorTexture":{
					"index":0
				}
			}
		},
		{
			"name":"Pii_DHIANSII_MEGA_eye.003",
			"pbrMetallicRoughness":{
				"baseColorTexture":{
					"index":1
				}
			}
		},
		{
			"name":"Pii_DHIANSII_MEGA_veil.003",
			"pbrMetallicRoughness":{
				"baseColorTexture":{
					"index":2
				}
			}
		},
		{
			"name":"Pii_DHIANSII_MEGA_env.003",
			"pbrMetallicRoughness":{
				"baseColorTexture":{
					"index":3
				}
			}
		}
	],
	"meshes":[
		{
			"name":"Mesh_0.001",
			"primitives":[
				{
					"attributes":{
						"POSITION":0,
						"TEXCOORD_0":1,
						"NORMAL":2
					},
					"indices":3,
					"material":0
				}
			]
		},
		{
			"name":"Mesh_1.001",
			"primitives":[
				{
					"attributes":{
						"POSITION":4,
						"TEXCOORD_0":5,
						"NORMAL":6
					},
					"indices":7,
					"material":1
				}
			]
		},
		{
			"name":"Mesh_2.001",
			"primitives":[
				{
					"attributes":{
						"POSITION":8,
						"TEXCOORD_0":9,
						"NORMAL":10
					},
					"indices":11,
					"material":2
				}
			]
		},
		{
			"name":"Mesh_3.001",
			"primitives":[
				{
					"attributes":{
						"POSITION":12,
						"TEXCOORD_0":13,
						"NORMAL":14
					},
					"indices":15,
					"material":3
				}
			]
		}
	],
	"textures":[
		{
			"sampler":0,
			"source":0
		},
		{
			"sampler":0,
			"source":1
		},
		{
			"sampler":0,
			"source":2
		},
		{
			"sampler":0,
			"source":3
		}
	],
	"images":[
		{
			"bufferView":4,
			"mimeType":"image/png",
			"name":"Pii_DHIANSII_MEGA_body"
		},
		{
			"bufferView":9,
			"mimeType":"image/png",
			"name":"Pii_DHIANSII_MEGA_eye"
		},
		{
			"bufferView":14,
			"mimeType":"image/png",
			"name":"Pii_DHIANSII_MEGA_veil"
		},
		{
			"bufferView":19,
			"mimeType":"image/png",
			"name":"Pii_DHIANSII_MEGA_env"
		}
	],
	"accessors":[
		{
			"bufferView":0,
			"componentType":5126,
			"count":288,
			"max":[
				0.2105390876531601,
				0.7386319637298584,
				0.1766960769891739
			],
			"min":[
				-0.2105390876531601,
				0.22489053010940552,
				-0.17996826767921448
			],
			"type":"VEC3"
		},
		{
			"bufferView":1,
			"componentType":5126,
			"count":288,
			"type":"VEC2"
		},
		{
			"bufferView":2,
			"componentType":5126,
			"count":288,
			"type":"VEC3"
		},
		{
			"bufferView":3,
			"componentType":5123,
			"count":594,
			"type":"SCALAR"
		},
		{
			"bufferView":5,
			"componentType":5126,
			"count":13,
			"max":[
				0.13617633283138275,
				0.6601484417915344,
				0.1533302664756775
			],
			"min":[
				-0.13617633283138275,
				0.4717751145362854,
				0.09199840575456619
			],
			"type":"VEC3"
		},
		{
			"bufferView":6,
			"componentType":5126,
			"count":13,
			"type":"VEC2"
		},
		{
			"bufferView":7,
			"componentType":5126,
			"count":13,
			"type":"VEC3"
		},
		{
			"bufferView":8,
			"componentType":5123,
			"count":24,
			"type":"SCALAR"
		},
		{
			"bufferView":10,
			"componentType":5126,
			"count":73,
			"max":[
				0.36871984601020813,
				0.6558800339698792,
				0.08309155702590942
			],
			"min":[
				-0.36871984601020813,
				0.0800461694598198,
				-0.2625831067562103
			],
			"type":"VEC3"
		},
		{
			"bufferView":11,
			"componentType":5126,
			"count":73,
			"type":"VEC2"
		},
		{
			"bufferView":12,
			"componentType":5126,
			"count":73,
			"type":"VEC3"
		},
		{
			"bufferView":13,
			"componentType":5123,
			"count":126,
			"type":"SCALAR"
		},
		{
			"bufferView":15,
			"componentType":5126,
			"count":745,
			"max":[
				0.2638534605503082,
				0.8233384490013123,
				0.17069047689437866
			],
			"min":[
				-0.2638534605503082,
				0.0010067283874377608,
				-0.2948981523513794
			],
			"type":"VEC3"
		},
		{
			"bufferView":16,
			"componentType":5126,
			"count":745,
			"type":"VEC2"
		},
		{
			"bufferView":17,
			"componentType":5126,
			"count":745,
			"type":"VEC3"
		},
		{
			"bufferView":18,
			"componentType":5123,
			"count":804,
			"type":"SCALAR"
		},
		{
			"bufferView":20,
			"componentType":5126,
			"count":250,
			"max":[
				10
			],
			"min":[
				0.04
			],
			"type":"SCALAR"
		},
		{
			"bufferView":21,
			"componentType":5126,
			"count":250,
			"type":"VEC4"
		}
	],
	"bufferViews":[
		{
			"buffer":0,
			"byteLength":3456,
			"byteOffset":0,
			"target":34962
		},
		{
			"buffer":0,
			"byteLength":2304,
			"byteOffset":3456,
			"target":34962
		},
		{
			"buffer":0,
			"byteLength":3456,
			"byteOffset":5760,
			"target":34962
		},
		{
			"buffer":0,
			"byteLength":1188,
			"byteOffset":9216,
			"target":34963
		},
		{
			"buffer":0,
			"byteLength":1543,
			"byteOffset":10404
		},
		{
			"buffer":0,
			"byteLength":156,
			"byteOffset":11948,
			"target":34962
		},
		{
			"buffer":0,
			"byteLength":104,
			"byteOffset":12104,
			"target":34962
		},
		{
			"buffer":0,
			"byteLength":156,
			"byteOffset":12208,
			"target":34962
		},
		{
			"buffer":0,
			"byteLength":48,
			"byteOffset":12364,
			"target":34963
		},
		{
			"buffer":0,
			"byteLength":3847,
			"byteOffset":12412
		},
		{
			"buffer":0,
			"byteLength":876,
			"byteOffset":16260,
			"target":34962
		},
		{
			"buffer":0,
			"byteLength":584,
			"byteOffset":17136,
			"target":34962
		},
		{
			"buffer":0,
			"byteLength":876,
			"byteOffset":17720,
			"target":34962
		},
		{
			"buffer":0,
			"byteLength":252,
			"byteOffset":18596,
			"target":34963
		},
		{
			"buffer":0,
			"byteLength":132,
			"byteOffset":18848
		},
		{
			"buffer":0,
			"byteLength":8940,
			"byteOffset":18980,
			"target":34962
		},
		{
			"buffer":0,
			"byteLength":5960,
			"byteOffset":27920,
			"target":34962
		},
		{
			"buffer":0,
			"byteLength":8940,
			"byteOffset":33880,
			"target":34962
		},
		{
			"buffer":0,
			"byteLength":1608,
			"byteOffset":42820,
			"target":34963
		},
		{
			"buffer":0,
			"byteLength":3093,
			"byteOffset":44428
		},
		{
			"buffer":0,
			"byteLength":1000,
			"byteOffset":47524
		},
		{
			"buffer":0,
			"byteLength":4000,
			"byteOffset":48524
		}
	],
	"samplers":[
		{
			"magFilter":9729,
			"minFilter":9987
		}
	],
	"buffers":[
		{
			"byteLength":52524,
			"uri":"data:application/octet-stream;base64,"
		}
	]
}
