{"accessors" : [{"bufferView" : 0, "byteOffset" : 0, "componentType" : 5123, "count" : 594, "type" : "SCALAR", "max" : [273], "min" : [0]}, {"bufferView" : 1, "byteOffset" : 0, "componentType" : 5126, "count" : 274, "type" : "VEC3", "max" : [0.2105390876531601, 0.7386319637298584, 0.1766960769891739], "min" : [-0.2105390876531601, 0.22489053010940552, -0.17996826767921448], "name" : "POSITION"}, {"bufferView" : 1, "byteOffset" : 12, "componentType" : 5126, "count" : 274, "type" : "VEC3", "max" : [0.9903246164321899, 0.9956117272377014, 0.9833215475082397], "min" : [-0.9903246164321899, -0.9971694350242615, -0.9498814940452576], "name" : "NORMAL"}, {"bufferView" : 1, "byteOffset" : 24, "componentType" : 5126, "count" : 274, "type" : "VEC4", "max" : [1.0000044107437134, 0.9834851622581482, 1.0000044107437134, 0], "min" : [-1.0000044107437134, -0.9773303866386414, -0.9992884993553162, 0], "name" : "TANGENT"}, {"bufferView" : 1, "byteOffset" : 40, "componentType" : 5126, "count" : 274, "type" : "VEC2", "max" : [0.9612323045730591, 0.9489089250564575], "min" : [-0.33995339274406433, 0.00963658094406128], "name" : "TEXCOORD_0"}, {"bufferView" : 0, "byteOffset" : 1188, "componentType" : 5123, "count" : 24, "type" : "SCALAR", "max" : [12], "min" : [0]}, {"bufferView" : 2, "byteOffset" : 0, "componentType" : 5126, "count" : 13, "type" : "VEC3", "max" : [0.13617633283138275, 0.6601484417915344, 0.1533302664756775], "min" : [-0.13617633283138275, 0.4717751145362854, 0.09199840575456619], "name" : "POSITION"}, {"bufferView" : 2, "byteOffset" : 12, "componentType" : 5126, "count" : 13, "type" : "VEC3", "max" : [0.7175061702728271, 0.4945330321788788, 0.9556306600570679], "min" : [-0.7175061702728271, -0.781348705291748, 0.48010075092315674], "name" : "NORMAL"}, {"bufferView" : 2, "byteOffset" : 24, "componentType" : 5126, "count" : 13, "type" : "VEC4", "max" : [0.9923438429832458, 0.3307013213634491, -0.038029976189136505, 0], "min" : [-0.9920902252197266, -0.29438915848731995, -0.7197873592376709, 0], "name" : "TANGENT"}, {"bufferView" : 2, "byteOffset" : 40, "componentType" : 5126, "count" : 13, "type" : "VEC2", "max" : [0.8578586578369141, 0.24492716789245605], "min" : [0.10860762000083923, -0.008338093757629395], "name" : "TEXCOORD_0"}, {"bufferView" : 0, "byteOffset" : 1236, "componentType" : 5123, "count" : 126, "type" : "SCALAR", "max" : [63], "min" : [0]}, {"bufferView" : 3, "byteOffset" : 0, "componentType" : 5126, "count" : 64, "type" : "VEC3", "max" : [0.36871984601020813, 0.6558800339698792, 0.08309155702590942], "min" : [-0.36871984601020813, 0.0800461694598198, -0.2625831067562103], "name" : "POSITION"}, {"bufferView" : 3, "byteOffset" : 12, "componentType" : 5126, "count" : 64, "type" : "VEC3", "max" : [0.8952689170837402, 0.9193041920661926, 0.9878257513046265], "min" : [-0.8952689170837402, -0.9193040728569031, -0.9878257513046265], "name" : "NORMAL"}, {"bufferView" : 3, "byteOffset" : 24, "componentType" : 5126, "count" : 64, "type" : "VEC4", "max" : [1.0000044107437134, 0.9706556797027588, 0.22938834130764008, 0], "min" : [-0.9977796673774719, -0.9706562161445618, -0.6353974938392639, 0], "name" : "TANGENT"}, {"bufferView" : 3, "byteOffset" : 40, "componentType" : 5126, "count" : 64, "type" : "VEC2", "max" : [0.9363886713981628, 0.7018514275550842], "min" : [0.8102131485939026, 0.5481485724449158], "name" : "TEXCOORD_0"}, {"bufferView" : 0, "byteOffset" : 1488, "componentType" : 5123, "count" : 804, "type" : "SCALAR", "max" : [742], "min" : [0]}, {"bufferView" : 4, "byteOffset" : 0, "componentType" : 5126, "count" : 743, "type" : "VEC3", "max" : [0.2638534605503082, 0.8233384490013123, 0.17069047689437866], "min" : [-0.2638534605503082, 0.0010067283874377608, -0.2948981523513794], "name" : "POSITION"}, {"bufferView" : 4, "byteOffset" : 12, "componentType" : 5126, "count" : 743, "type" : "VEC3", "max" : [0.9912611842155457, 0.9990777969360352, 1.0000044107437134], "min" : [-0.9912611842155457, -0.8713707327842712, -1.0000044107437134], "name" : "NORMAL"}, {"bufferView" : 4, "byteOffset" : 24, "componentType" : 5126, "count" : 743, "type" : "VEC4", "max" : [1.0000044107437134, 0.999645471572876, 0.9586756825447083, 0], "min" : [-1.0000038146972656, -0.9848373532295227, -0.9995633363723755, 0], "name" : "TANGENT"}, {"bufferView" : 4, "byteOffset" : 40, "componentType" : 5126, "count" : 743, "type" : "VEC2", "max" : [1.452143669128418, 0.9923526048660278], "min" : [-1, 0.007647395133972168], "name" : "TEXCOORD_0"}], "asset" : {"generator" : "Aspose.3D 24.9.1", "version" : "2.0"}, "buffers" : [{"uri" : "data:application/octet-stream;base64,", "byteLength" : 55628}], "bufferViews" : [{"buffer" : 0, "byteOffset" : 0, "byteLength" : 3096, "target" : 34963}, {"buffer" : 0, "byteOffset" : 3100, "byteLength" : 13152, "byteStride" : 48, "target" : 34962}, {"buffer" : 0, "byteOffset" : 16256, "byteLength" : 624, "byteStride" : 48, "target" : 34962}, {"buffer" : 0, "byteOffset" : 16884, "byteLength" : 3072, "byteStride" : 48, "target" : 34962}, {"buffer" : 0, "byteOffset" : 19960, "byteLength" : 35664, "byteStride" : 48, "target" : 34962}], "images" : [{"uri" : "Pii_DHIANSII_MEGA_body.png"}, {"uri" : "Pii_DHIANSII_MEGA_eye.png"}, {"uri" : "Pii_DHIANSII_MEGA_veil.png"}, {"uri" : "Pii_DHIANSII_MEGA_env.png"}], "materials" : [{"name" : "Pii_DHIANSII_MEGA_body", "pbrMetallicRoughness" : {"baseColorFactor" : [1, 1, 1, 1], "baseColorTexture" : {"index" : 0, "texCoord" : 0}, "metallicFactor" : 1, "roughnessFactor" : 1}, "emissiveFactor" : [0, 0, 0], "alphaMode" : "OPAQUE", "doubleSided" : false}, {"name" : "Pii_DHIANSII_MEGA_eye", "pbrMetallicRoughness" : {"baseColorFactor" : [1, 1, 1, 1], "baseColorTexture" : {"index" : 1, "texCoord" : 0}, "metallicFactor" : 1, "roughnessFactor" : 1}, "emissiveFactor" : [0, 0, 0], "alphaMode" : "OPAQUE", "doubleSided" : false}, {"name" : "Pii_DHIANSII_MEGA_veil", "pbrMetallicRoughness" : {"baseColorFactor" : [1, 1, 1, 1], "baseColorTexture" : {"index" : 2, "texCoord" : 0}, "metallicFactor" : 1, "roughnessFactor" : 1}, "emissiveFactor" : [0, 0, 0], "alphaMode" : "OPAQUE", "doubleSided" : false}, {"name" : "Pii_DHIANSII_MEGA_env", "pbrMetallicRoughness" : {"baseColorFactor" : [1, 1, 1, 1], "baseColorTexture" : {"index" : 3, "texCoord" : 0}, "metallicFactor" : 1, "roughnessFactor" : 1}, "emissiveFactor" : [0, 0, 0], "alphaMode" : "OPAQUE", "doubleSided" : false}], "meshes" : [{"primitives" : [{"attributes" : {"POSITION" : 1, "NORMAL" : 2, "TANGENT" : 3, "TEXCOORD_0" : 4}, "indices" : 0, "material" : 0, "mode" : 4}], "name" : ""}, {"primitives" : [{"attributes" : {"POSITION" : 6, "NORMAL" : 7, "TANGENT" : 8, "TEXCOORD_0" : 9}, "indices" : 5, "material" : 1, "mode" : 4}], "name" : ""}, {"primitives" : [{"attributes" : {"POSITION" : 11, "NORMAL" : 12, "TANGENT" : 13, "TEXCOORD_0" : 14}, "indices" : 10, "material" : 2, "mode" : 4}], "name" : ""}, {"primitives" : [{"attributes" : {"POSITION" : 16, "NORMAL" : 17, "TANGENT" : 18, "TEXCOORD_0" : 19}, "indices" : 15, "material" : 3, "mode" : 4}], "name" : ""}], "nodes" : [{"mesh" : 0, "name" : "merged_0"}, {"mesh" : 1, "name" : "merged_1"}, {"mesh" : 2, "name" : "merged_2"}, {"mesh" : 3, "name" : "merged_3"}, {"children" : [0, 1, 2, 3], "name" : "merged"}, {"children" : [4], "name" : "DHIANSII_MEGA_float"}], "samplers" : [{"magFilter" : 9729, "minFilter" : 9729, "wrapS" : 10497, "wrapT" : 10497}, {"magFilter" : 9729, "minFilter" : 9729, "wrapS" : 10497, "wrapT" : 10497}, {"magFilter" : 9729, "minFilter" : 9729, "wrapS" : 10497, "wrapT" : 10497}, {"magFilter" : 9729, "minFilter" : 9729, "wrapS" : 10497, "wrapT" : 10497}], "scene" : 0, "scenes" : [{"nodes" : [5]}], "textures" : [{"sampler" : 0, "source" : 0, "name" : "Pii_DHIANSII_MEGA_body.png"}, {"sampler" : 1, "source" : 1, "name" : "Pii_DHIANSII_MEGA_eye.png"}, {"sampler" : 2, "source" : 2, "name" : "Pii_DHIANSII_MEGA_veil.png"}, {"sampler" : 3, "source" : 3, "name" : "Pii_DHIANSII_MEGA_env.png"}]}